<?xml version="1.0" encoding="UTF-8"?> <svg xmlns="http://www.w3.org/2000/svg" width="49" height="48" viewBox="0 0 49 48" fill="none"> <path d="M9.10211 14.869C8.41711 14.214 8.03179 13.3363 7.95045 12.2275L5.9939 12.4458C6.10949 14.0427 6.68318 15.3014 7.71926 16.2262C8.24586 16.6929 8.87092 17.0439 9.5859 17.2708L10.5749 15.6782C9.9969 15.5241 9.50456 15.2501 9.10211 14.869ZM17.1724 9.71864C16.7143 8.94373 16.0592 8.33578 15.203 7.88625C14.4323 7.48381 13.5461 7.26118 12.5314 7.22265L17.2922 1.78541V0.244141H6.75168V1.97806H14.9932L10.4721 7.16271V8.72966H11.5724C13.0067 8.72966 14.0855 9.05932 14.8091 9.71864C15.5369 10.378 15.9008 11.2299 15.9008 12.2746C15.9008 12.3816 15.8965 12.4844 15.888 12.5871H17.8531C17.8574 12.5143 17.8574 12.4458 17.8574 12.373C17.8574 11.3798 17.6262 10.4936 17.1724 9.71864Z" fill="#808080"></path> <path d="M32.5379 4.31554C31.9599 2.97122 31.155 1.91374 30.1189 1.14739C29.0828 0.381035 27.9141 0 26.6083 0C25.3239 0 24.1594 0.381035 23.1233 1.14739C22.0915 1.91374 21.2781 2.97122 20.6915 4.31554C20.105 5.65987 19.8096 7.15404 19.8096 8.80234C19.8096 10.1681 20.0108 11.4311 20.4218 12.587H22.4683C22.4426 12.5271 22.4169 12.4628 22.3912 12.3986C21.9759 11.3197 21.7661 10.121 21.7661 8.80234C21.7661 7.4837 21.9759 6.28494 22.3912 5.20605C22.8065 4.13145 23.3802 3.28803 24.1165 2.67581C24.8487 2.06358 25.6792 1.75961 26.6083 1.75961C27.5373 1.75961 28.3722 2.06358 29.1043 2.67581C29.8364 3.28803 30.4143 4.13145 30.8296 5.20605C31.2449 6.28494 31.4504 7.4837 31.4504 8.80234C31.4504 10.121 31.2449 11.3197 30.8296 12.3986C30.8039 12.4628 30.7782 12.5271 30.7526 12.587H32.8076C33.21 11.4311 33.407 10.1681 33.407 8.80234C33.407 7.15404 33.1201 5.65987 32.5379 4.31554Z" fill="#808080"></path> <path d="M41.4516 7.94604V3.98584H39.6192V7.94604H35.6804V9.65855H39.6192V13.6187H41.4516V9.65855H45.4161V7.94604H41.4516Z" fill="#808080"></path> <path d="M7.16263 39.4306L3.53638 35.8942L4.30701 34.4429L10.2366 35.6588L9.88982 37.337L6.82441 36.7077L8.35711 38.2018L7.16263 39.4306Z" fill="#BDBDBD"></path> <path d="M33.0774 31.0564H15.8752L15.0232 31.994C15.2159 34.0191 16.5302 37.8465 20.0965 37.8465H28.8518C32.4181 37.8465 33.7324 34.0191 33.9294 31.994L33.0774 31.0564ZM31.5704 34.1261C30.9325 35.479 30.042 36.134 28.8518 36.134H20.0965C18.0287 36.134 17.2067 34.0362 16.8941 32.7689H32.0456C31.9471 33.1671 31.7973 33.6509 31.5704 34.1261Z" fill="#BDBDBD"></path> <path d="M29.4126 33.5952H19.5356V35.3077H29.4126V33.5952Z" fill="#BDBDBD"></path> <path d="M31.3949 26.7881H17.5535V28.5006H31.3949V26.7881Z" fill="#BDBDBD"></path> <path d="M44.7609 25.2682C47.2312 24.6688 47.8006 22.8749 47.8006 20.4132L46.9444 19.5569H43.2068C42.1493 19.5569 41.3616 20.349 40.3555 21.6976L36.9732 16.2646L33.0516 14.0854H15.8964L15.1429 14.505L12.8696 15.768L11.9748 16.2646L11.1613 17.5747L8.59256 21.6976C7.58645 20.349 6.79869 19.5569 5.74549 19.5569H2.00793L1.15167 20.4132C1.15167 22.8749 1.72108 24.6688 4.1871 25.2682C2.02933 27.2162 0 29.4553 0 31.0094L0.693569 41.7169V46.9101L1.54983 47.7664H10.8873L11.7436 46.9101V43.8362C15.4127 44.153 19.8053 44.4098 24.4762 44.4098C29.1428 44.4098 33.5311 44.153 37.2044 43.8362V46.9101L38.0607 47.7664H47.3982L48.2545 46.9101V41.7811L48.948 31.0651V31.0094C48.948 29.4553 46.923 27.2162 44.7609 25.2682ZM47.0257 30.3544L37.7824 32.251L37.0589 30.6155L44.4313 27.3275C45.6685 28.5091 46.6233 29.588 47.0257 30.3544ZM43.2068 21.2695H46.0624C45.934 23.0419 45.2918 23.7098 43.0056 23.7655C42.5518 23.393 42.1151 23.0505 41.7169 22.7379C42.3334 21.9159 42.8986 21.2695 43.2068 21.2695ZM13.1949 17.5447L13.2849 17.4934L16.3417 15.798H32.6063L35.7531 17.5447L38.2619 21.5777C36.0785 21.7233 31.3776 21.9716 24.4762 21.9716C17.579 21.9716 12.8738 21.7233 10.6904 21.5777L13.1949 17.5447ZM2.88987 21.2695H5.74549C6.05375 21.2695 6.6146 21.9159 7.23539 22.7379C6.83723 23.0462 6.40053 23.393 5.94243 23.7655C3.65622 23.7098 3.01831 23.0419 2.88987 21.2695ZM4.51676 27.3275L11.8892 30.6155L11.1699 32.251L1.9223 30.3544C2.32474 29.588 3.27947 28.5091 4.51676 27.3275ZM10.0311 46.0539H2.40609V42.7273C3.78038 42.9371 6.48188 43.3267 10.0311 43.6735V46.0539ZM24.4762 42.6973C19.8395 42.6973 15.4812 42.4405 11.8463 42.1236L13.2506 40.942H35.6974L37.106 42.1236C33.4711 42.4405 29.1128 42.6973 24.4762 42.6973ZM36.3225 39.2295H12.6255L9.45738 41.8967C6.02806 41.5414 3.49782 41.1646 2.36327 40.9848L1.7853 32.0754L12.176 34.2032L14.1497 29.7507L5.89534 26.0688C7.01276 25.0927 8.24577 24.0994 9.45738 23.2046C10.7589 23.3074 15.9692 23.6841 24.4762 23.6841C32.9745 23.6841 38.1848 23.3074 39.4906 23.2046C40.7065 24.0994 41.9395 25.0927 43.057 26.0688L34.8026 29.7507L36.7763 34.2032L47.167 32.0754L46.589 40.9848C45.4545 41.1646 42.9242 41.5414 39.4949 41.8967L36.3225 39.2295ZM46.5419 46.0539H38.917V43.6735C42.4661 43.3267 45.1676 42.9371 46.5419 42.7273V46.0539Z" fill="#BDBDBD"></path> <path d="M41.7855 39.4306L40.591 38.2018L42.128 36.7077L39.0583 37.337L38.7158 35.6588L44.6411 34.4429L45.4118 35.8942L41.7855 39.4306Z" fill="#BDBDBD"></path> </svg> 