<?xml version="1.0" encoding="UTF-8"?> <svg xmlns="http://www.w3.org/2000/svg" width="60" height="40" viewBox="0 0 60 40" fill="none"> <path d="M22.7766 28.4363L21.7319 27.0792C22.0273 26.8522 24.6732 24.8657 26.9251 24.8657C29.16 24.8657 31.2364 26.0773 31.3263 26.133L30.4529 27.6058C30.4358 27.5972 28.6847 26.5782 26.9251 26.5782C25.5123 26.5825 23.453 27.9226 22.7766 28.4363Z" fill="#BDBDBD"></path> <path d="M55.0019 28.5307C54.3511 27.0022 52.5701 26.2616 51.0288 26.8824C47.9548 28.1197 46.0411 28.7747 45.035 29.0359C44.5812 26.998 42.7574 25.4695 40.5867 25.4695H37.2088C36.7336 25.4695 35.7146 24.9044 34.7342 24.3564C32.8119 23.2818 30.1832 21.8133 27.2163 21.8133C24.853 21.8133 22.9221 22.6781 20.8157 24.1338V21.0042H12.2061V38.4675H20.8157V35.7318H27.4432L32.9361 38.6003C34.2461 39.2853 35.6889 39.6278 37.1317 39.6278C38.5232 39.6278 39.9103 39.311 41.1861 38.673L53.5505 32.478C54.9976 31.7545 55.6355 30.0206 55.0019 28.5307ZM19.1032 36.755H13.9186V22.7167H19.1032V36.755ZM52.7841 30.9453L40.4198 37.1403C38.3134 38.1935 35.8131 38.1721 33.7324 37.0847L27.8627 34.0193H20.8157V26.253C23.0549 24.5619 24.9429 23.5258 27.2163 23.5258C29.7379 23.5258 32.0456 24.8145 33.8994 25.8506C35.2308 26.5955 36.284 27.1821 37.2088 27.1821H40.5867C41.854 27.1821 42.9329 28.0212 43.2968 29.1729H35.4107V30.8854H44.2858C44.6326 30.8854 45.6772 30.8854 51.671 28.4707C52.3517 28.1967 53.1395 28.5264 53.4263 29.2028C53.7046 29.8579 53.4221 30.6285 52.7841 30.9453Z" fill="#BDBDBD"></path> <path d="M16.5087 35.1622C17.0455 35.1622 17.4806 34.7271 17.4806 34.1904C17.4806 33.6536 17.0455 33.2185 16.5087 33.2185C15.972 33.2185 15.5369 33.6536 15.5369 34.1904C15.5369 34.7271 15.972 35.1622 16.5087 35.1622Z" fill="#BDBDBD"></path> <path d="M14.0383 0H5.04761V1.71252H14.0383V0Z" fill="#808080"></path> <path d="M6.76017 4.28979H0V6.00231H6.76017V4.28979Z" fill="#808080"></path> <path d="M59.0176 10.2151C58.3197 8.10011 56.2304 6.58453 53.6873 6.3405L48.1559 5.30871L35.479 0.402344L26.2699 0.462282L8.39127 5.65977L7.76192 8.57961L7.39801 10.2793L7.39373 10.2921H9.14478L9.14906 10.2793L9.51725 8.57961L9.73988 7.54782L14.3166 9.56431C13.5502 10.3949 13.0664 11.4866 13.0151 12.6897L11.3197 11.9918H7.02982L7.0127 12.0731L13.3362 14.6719C14.0511 16.53 15.8536 17.8529 17.96 17.8529C20.6871 17.8529 22.9049 15.6352 22.9049 12.908C22.9049 10.1765 20.6871 7.95883 17.96 7.95883C17.2321 7.95883 16.5429 8.11723 15.9221 8.3998L11.6236 6.50747L20.1605 4.02432H20.1648L25.2724 5.77109L28.3806 12.7582H24.0437V14.4707H43.896C44.5511 16.4358 46.4092 17.8529 48.5883 17.8529C50.7718 17.8529 52.6256 16.4358 53.2849 14.4707H58.1014L59.0946 10.4463L59.0176 10.2151ZM17.96 9.67134C19.741 9.67134 21.1923 11.1227 21.1923 12.908C21.1923 14.689 19.741 16.1404 17.96 16.1404C16.1747 16.1404 14.7233 14.689 14.7233 12.908C14.7233 11.1227 16.1747 9.67134 17.96 9.67134ZM30.5555 2.14911L35.1665 2.11914L42.6759 5.02614L30.5555 4.44388V2.14911ZM23.0247 3.18947L26.5183 2.1748L28.843 2.16196V4.36254L26.0644 4.22982L23.0247 3.18947ZM48.5883 16.1404C46.8073 16.1404 45.356 14.689 45.356 12.908C45.356 11.1227 46.8073 9.67134 48.5883 9.67134C50.3736 9.67134 51.825 11.1227 51.825 12.908C51.825 14.689 50.3736 16.1404 48.5883 16.1404ZM56.7613 12.7582H53.5332C53.4562 10.0952 51.2684 7.95883 48.5883 7.95883C45.9125 7.95883 43.7248 10.0952 43.6477 12.7582H30.2558L27.2504 6.00227L47.8819 6.99125V6.98697L53.4133 8.03161L53.4904 8.04445C55.25 8.20286 56.7528 9.19184 57.3093 10.5319L56.7613 12.7582Z" fill="#BDBDBD"></path> <path d="M17.9599 13.88C18.4966 13.88 18.9317 13.4449 18.9317 12.9081C18.9317 12.3714 18.4966 11.9363 17.9599 11.9363C17.4232 11.9363 16.988 12.3714 16.988 12.9081C16.988 13.4449 17.4232 13.88 17.9599 13.88Z" fill="#BDBDBD"></path> <path d="M48.5883 13.88C49.1251 13.88 49.5602 13.4449 49.5602 12.9081C49.5602 12.3714 49.1251 11.9363 48.5883 11.9363C48.0516 11.9363 47.6165 12.3714 47.6165 12.9081C47.6165 13.4449 48.0516 13.88 48.5883 13.88Z" fill="#BDBDBD"></path> <path d="M42.2264 10.2924H32.495L31.7886 8.57983H42.2264V10.2924Z" fill="#BDBDBD"></path> <path d="M10.9645 8.57983H1.97803V10.2924H10.9645V8.57983Z" fill="#808080"></path> </svg> 