<?xml version="1.0" encoding="UTF-8"?> <svg xmlns="http://www.w3.org/2000/svg" width="53" height="47" viewBox="0 0 53 47" fill="none"> <path d="M26.0386 46.452L15.3269 40.3297C8.22847 36.2711 3.81445 28.6718 3.81445 20.4945V3.75464H48.2628V20.4988C48.2628 28.676 43.8531 36.2753 36.7504 40.334L26.0386 46.452ZM5.52697 5.46716V20.4988C5.52697 28.0638 9.60704 35.0937 16.1745 38.8484L26.0386 44.4826L35.9027 38.8484C42.4702 35.0937 46.5503 28.0638 46.5503 20.4988V5.46716H5.52697Z" fill="#BDBDBD"></path> <path d="M26.0385 8.36548C21.5217 8.36548 17.493 10.489 14.8943 13.7942L16.32 14.766C18.5976 11.9104 22.1083 10.078 26.0385 10.078C32.9057 10.078 38.4885 15.6651 38.4885 22.528C38.4885 29.3952 32.9057 34.978 26.0385 34.978C19.1756 34.978 13.5885 29.3952 13.5885 22.528C13.5885 20.1818 14.2392 17.9855 15.3781 16.1146L13.9567 15.147C12.638 17.2963 11.876 19.8265 11.876 22.528C11.876 30.3371 18.2294 36.6905 26.0385 36.6905C33.8476 36.6905 40.201 30.3371 40.201 22.528C40.201 14.7189 33.8476 8.36548 26.0385 8.36548Z" fill="#BDBDBD"></path> <path d="M26.0386 12.1375C20.3103 12.1375 15.6479 16.7998 15.6479 22.5281C15.6479 28.2608 20.3103 32.9188 26.0386 32.9188C31.7713 32.9188 36.4336 28.2608 36.4336 22.5281C36.4336 16.7998 31.7713 12.1375 26.0386 12.1375ZM26.0386 13.85C29.194 13.85 31.964 15.5411 33.4838 18.067H18.5978C20.1176 15.5411 22.8833 13.85 26.0386 13.85ZM23.183 30.7225C20.0234 29.618 17.6901 26.7367 17.3947 23.2774C20.6827 23.5214 23.2772 26.2743 23.2772 29.6223C23.2772 29.9947 23.2472 30.3629 23.183 30.7225ZM26.0386 31.2063C25.6362 31.2063 25.2423 31.1806 24.8527 31.125C24.9426 30.6326 24.9897 30.1274 24.9897 29.6223C24.9897 25.3324 21.6332 21.8175 17.4118 21.5606C17.4846 20.9441 17.6173 20.349 17.81 19.7796H34.2716C34.4642 20.349 34.5969 20.9441 34.6654 21.5606C30.4441 21.8175 27.0918 25.3324 27.0918 29.6223C27.0918 30.1274 27.1389 30.6326 27.2288 31.125C26.8392 31.1806 26.4411 31.2063 26.0386 31.2063ZM28.8985 30.7183C28.8343 30.3586 28.8044 29.9904 28.8044 29.6223C28.8044 26.2743 31.3988 23.5214 34.6826 23.2774C34.3914 26.7367 32.0581 29.618 28.8985 30.7183Z" fill="#BDBDBD"></path> <path d="M26.0387 24.3005C26.7811 24.3005 27.383 23.6986 27.383 22.9561C27.383 22.2137 26.7811 21.6118 26.0387 21.6118C25.2962 21.6118 24.6943 22.2137 24.6943 22.9561C24.6943 23.6986 25.2962 24.3005 26.0387 24.3005Z" fill="#BDBDBD"></path> <path d="M52.0137 12.1375H50.3012V1.71252H41.6572V0H52.0137V12.1375Z" fill="#808080"></path> <path d="M8.40847 39.9144C2.907 35.1279 0 28.5176 0 20.8027H1.71252C1.71252 28.0082 4.4183 34.1732 9.53445 38.6215L8.40847 39.9144Z" fill="#808080"></path> </svg> 