<?xml version="1.0" encoding="UTF-8"?> <svg xmlns="http://www.w3.org/2000/svg" width="51" height="48" viewBox="0 0 51 48" fill="none"> <path d="M15.9308 30.0205C16.581 30.0205 17.1081 29.4934 17.1081 28.8431C17.1081 28.1929 16.581 27.6658 15.9308 27.6658C15.2805 27.6658 14.7534 28.1929 14.7534 28.8431C14.7534 29.4934 15.2805 30.0205 15.9308 30.0205Z" fill="#BDBDBD"></path> <path d="M45.613 16.175C45.8913 16.9499 46.131 17.7462 46.3194 18.5596L47.7922 19.4073L46.7818 21.1584C46.8888 22.0532 46.9445 22.9608 46.9445 23.8856C46.9445 24.0226 46.9445 24.1553 46.9402 24.2923L46.9659 24.2752L50.1298 18.778L45.613 16.175ZM41.5586 26.0904L38.947 24.5877L15.9736 11.3628L20.4133 3.64789L43.0656 16.6844C42.7146 15.7511 42.2993 14.852 41.8155 13.9915L19.784 1.3103L13.636 11.9921L11.2342 16.1664L17.0782 19.5315L13.7901 25.2299H7.2098V20.2293H3.72911C3.62636 20.7902 3.54502 21.3639 3.49364 21.9419H5.49729V32.9062C5.98963 33.9081 6.56333 34.8671 7.2098 35.7662V32.4567H13.8587C14.4709 32.8121 15.1773 33.0133 15.9308 33.0133C18.2299 33.0133 20.0965 31.1424 20.0965 28.8433V28.7705L23.3503 23.1406L37.1703 31.0995L37.911 29.8194L40.2614 31.1723L42.265 27.6916L44.2387 26.2574C44.3243 25.5296 44.3714 24.7932 44.3757 24.044L41.5586 26.0904ZM12.2232 30.7442H7.21408V26.9424H12.2275C11.9321 27.5118 11.7651 28.1583 11.7651 28.8433C11.7651 29.5283 11.9321 30.1748 12.2232 30.7442ZM15.9308 31.3008C14.5779 31.3008 13.4776 30.1962 13.4776 28.8433C13.4776 27.4904 14.5779 26.3901 15.9308 26.3901C17.2837 26.3901 18.384 27.4904 18.384 28.8433C18.384 30.1962 17.2837 31.3008 15.9308 31.3008ZM19.4029 26.5442C18.6837 25.4611 17.4721 24.7333 16.0849 24.6819L18.5681 20.3877L18.9962 20.6361L21.8604 22.2929L19.4029 26.5442ZM36.5409 28.762L21.8433 20.3021L20.9742 19.7969L17.9344 18.0502L13.5718 15.537L15.1216 12.8484L38.0908 26.069L36.5409 28.762ZM39.632 28.8347L38.7629 28.3338L39.5764 26.9253L40.4412 27.4219L39.632 28.8347ZM5.49729 37.1276H2.66735V31.0054C1.84106 29.113 1.20743 27.195 0.954834 25.4525V38.8401H7.04711C6.55048 38.1123 6.02388 37.2946 5.49729 36.4169V37.1276Z" fill="#BDBDBD"></path> <path d="M21.109 6.16664L20.2546 7.65088L41.7316 20.0137L42.5859 18.5294L21.109 6.16664Z" fill="#BDBDBD"></path> <path d="M23.8853 0C10.7161 0 0 10.7161 0 23.8853C0 37.0589 10.7161 47.7749 23.8853 47.7749C37.0589 47.7749 47.7749 37.0589 47.7749 23.8853C47.7749 10.7161 37.0589 0 23.8853 0ZM23.8853 1.71252C29.6908 1.71252 34.9867 3.95592 38.9426 7.6207L7.6207 38.9426C3.95591 34.9867 1.71252 29.6908 1.71252 23.8853C1.71252 11.6622 11.6622 1.71252 23.8853 1.71252ZM23.8853 46.0624C18.0799 46.0624 12.7882 43.819 8.83231 40.15L40.1542 8.83231C43.819 12.7882 46.0624 18.0799 46.0624 23.8853C46.0624 36.1127 36.1127 46.0624 23.8853 46.0624Z" fill="#808080"></path> </svg> 