<?xml version="1.0" encoding="UTF-8"?> <svg xmlns="http://www.w3.org/2000/svg" width="48" height="51" viewBox="0 0 48 51" fill="none"> <path d="M26.1843 42.5689H21.5905L20.7128 39.2809L17.2279 37.8381L14.2823 39.5421L11.0371 36.2968L12.7368 33.347L11.294 29.8663L8.01025 28.9844V24.3948L11.294 23.5172L12.7368 20.0322L11.0371 17.0867L14.2823 13.8415L17.2279 15.5411L20.7128 14.0983L21.5905 10.8103H26.1843L27.062 14.0983L30.547 15.5411L33.4925 13.8415L36.7377 17.0867L35.0381 20.0322L36.4809 23.5172L39.7646 24.3948V28.9844L36.0699 29.9734L35.6289 28.3208L38.0521 27.67V25.7092L35.2222 24.9514L33.1286 19.908L34.5971 17.365L33.2099 15.9778L30.6711 17.4463L25.6278 15.357L24.87 12.5228H22.9092L22.1471 15.357L17.1037 17.4463L14.5649 15.9778L13.1778 17.365L14.6463 19.908L12.557 24.9514L9.72277 25.7092V27.67L12.557 28.4278L14.6463 33.4755L13.1778 36.0143L14.5649 37.4014L17.1037 35.9329L22.1471 38.0222L22.9092 40.8564H24.87L25.5165 38.4289L27.1733 38.8742L26.1843 42.5689Z" fill="#BDBDBD"></path> <path d="M47.775 26.6896C47.775 39.8588 37.0589 50.5749 23.8896 50.5749C10.7161 50.5749 0 39.8588 0 26.6896C0 13.5203 10.7161 2.80425 23.8896 2.80425V0L27.5458 3.66051L23.8896 7.32101V4.51677C11.6622 4.51677 1.71252 14.4622 1.71252 26.6896C1.71252 38.917 11.6622 48.8624 23.8896 48.8624C36.1127 48.8624 46.0624 38.917 46.0624 26.6896H47.775Z" fill="#808080"></path> <path d="M20.6272 29.961L15.5667 29.9353L14.9502 28.4926L19.056 24.1128V22.7513H17.1208V24.0529H15.4083V21.8951L16.2646 21.0388H19.9122L20.7685 21.8951V24.451L20.5373 25.0375L17.5404 28.2314L20.64 28.2485L20.6272 29.961Z" fill="#808080"></path> <path d="M25.9146 29.9605H24.2021V27.6016H21.0767L20.396 26.223L24.3776 21.0383H25.9146V25.889H26.3812V27.6016H25.9146V29.9605ZM22.8106 25.8848H24.1978V24.0781L22.8106 25.8848Z" fill="#808080"></path> <path d="M31.6387 34.6357L30.0803 33.925L32.9103 27.7086H30.1702V25.9961H35.0209V27.2034L31.6387 34.6357Z" fill="#808080"></path> <path d="M29.3703 22.1136L24.3374 34.5278L25.9244 35.1712L30.9573 22.757L29.3703 22.1136Z" fill="#808080"></path> </svg> 