<?xml version="1.0" encoding="UTF-8"?> <svg xmlns="http://www.w3.org/2000/svg" width="39" height="48" viewBox="0 0 39 48" fill="none"> <path d="M17.6087 7.68515H17.3262V7.52246L17.6087 7.68515Z" fill="#BDBDBD"></path> <path d="M32.7048 30.9752H29.1856L27.914 23.9881H26.1715L27.9269 33.621L26.3856 37.0246L22.3013 35.8901V16.2775L21.9802 16.4616L20.5887 17.2665V23.4401H14.0683V14.4793H15.1429L15.935 14.0212L17.3264 13.2164L18.1056 12.7668H12.8953L12.4757 11.0029L14.5007 7.68493H17.3264V7.52224L15.935 6.71736L14.6463 5.97241H13.5417L10.6433 10.7118L11.1356 12.7668H8.78521L5.47149 30.9752H1.95227L0 39.7946L5.89962 44.2258H28.7574L34.6571 39.7946L32.7048 30.9752ZM14.0683 25.1526H20.5887V35.6846H14.0683V25.1526ZM10.2152 14.4793H12.3558V35.8901L8.27146 37.0246L6.73019 33.6253L10.2152 14.4793ZM5.7198 41.9524L1.90945 39.0882L3.32656 32.6877H5.15895L4.94917 33.8436L6.88004 38.1078L5.7198 41.9524ZM7.33813 42.5132L8.47695 38.7457L13.3277 37.3971H21.3294L26.1801 38.7457L27.3189 42.5132H7.33813ZM27.777 38.1078L29.7079 33.8436L29.4981 32.6877H31.3305L32.7476 39.0882L28.9373 41.9524L27.777 38.1078Z" fill="#BDBDBD"></path> <path d="M30.5728 6.80298H24.2151L22.6053 8.41275L21.3595 9.6586L20.6616 10.3565L22.0017 11.765L22.9478 12.7668L23.4059 13.2506L26.5655 16.5815L27.3576 17.4163L27.3961 17.4548L27.4346 17.4163L34.1263 10.3565L30.5728 6.80298ZM24.9258 8.5155H29.8664L30.8682 9.51732H23.924L24.9258 8.5155ZM27.3961 14.9631L26.0047 13.4946L25.3111 12.7668L23.8812 11.2598L23.8897 11.2298H30.9367L27.3961 14.9631Z" fill="#808080"></path> <path d="M23.8555 11.23L23.8812 11.2599L23.8897 11.23H23.8555ZM23.8555 11.23L23.8812 11.2599L23.8897 11.23H23.8555ZM23.8555 11.23L23.8812 11.2599L23.8897 11.23H23.8555ZM26.6255 19.129L27.1264 19.6556L27.3961 19.9424L28.171 19.129H26.6255ZM23.8555 11.23L23.8812 11.2599L23.8897 11.23H23.8555ZM23.8555 11.23L23.8812 11.2599L23.8897 11.23H23.8555ZM23.8555 11.23L23.8812 11.2599L23.8897 11.23H23.8555ZM23.8555 11.23L23.8812 11.2599L23.8897 11.23H23.8555ZM23.8555 11.23L23.8812 11.2599L23.8897 11.23H23.8555ZM23.8555 11.23L23.8812 11.2599L23.8897 11.23H23.8555Z" fill="white"></path> <path d="M28.2526 0H26.54V4.30698H28.2526V0Z" fill="#808080"></path> <path d="M21.1242 5.76257L21.0043 5.97235L20.2679 7.24389L18.0673 5.97235L16.7915 5.23597L17.6478 3.75464L21.1242 5.76257Z" fill="#808080"></path> <path d="M21.1242 14.9802L20.589 15.2885L17.6478 16.9882L16.7915 15.5026L18.564 14.4793L20.2679 13.4946L20.589 14.0512L20.8373 14.4793L21.1242 14.9802Z" fill="#808080"></path> <path d="M28.2526 19.1287H26.54V22.2754H28.2526V19.1287Z" fill="#808080"></path> <path d="M27.3579 17.4163L27.3964 17.4548L27.435 17.4163H27.3579Z" fill="white"></path> <path d="M34.5351 13.4986L33.6777 14.9861L37.1571 16.9916L38.0144 15.5042L34.5351 13.4986Z" fill="#808080"></path> <path d="M37.1414 3.74396L33.6641 5.75269L34.5207 7.23555L37.998 5.22682L37.1414 3.74396Z" fill="#808080"></path> <path d="M25.5936 46.1353H9.06348V47.8478H25.5936V46.1353Z" fill="#BDBDBD"></path> </svg> 