<?xml version="1.0" encoding="UTF-8"?> <svg xmlns="http://www.w3.org/2000/svg" width="8274" height="8454" viewBox="0 0 8274 8454" fill="none"><g clip-path="url(#clip0_5_27)"><path d="M7685.05 6401.32C8071.43 5744.83 8275.06 4993.04 8274 4227C8274 1892.45 6421.7 0 4136.96 0C1852.15 0 0.00413544 1892.54 0.00413544 4227C-1.05835 4993.06 202.63 5744.87 589.093 6401.32L574.034 6413.64L592.015 6406.53C1316.11 7633.31 2632.66 8454 4136.96 8454C5641.34 8454 6957.75 7633.31 7681.76 6406.53L7699.75 6413.64L7685.05 6401.32ZM7765.74 4227C7766.44 4874.32 7600.35 5510.44 7284.16 6071.39L4724.92 3965.27L4200.04 521.151C6174.83 555.599 7765.74 2200.95 7765.74 4227ZM508.63 4227C508.63 2201.03 2099.38 555.674 4074.17 521.151L3549.29 3965.27L990.06 6071.39C673.968 5510.41 507.93 4874.31 508.63 4227ZM4137.11 7934.46C2849.55 7934.46 1719.4 7248.57 1075.39 6215.52L4137.11 5005.29L7198.83 6215.61C6554.75 7248.57 5424.83 7934.46 4137.11 7934.46Z" fill="white"></path></g><defs><clipPath id="clip0_5_27"><rect width="8274" height="8454" fill="white"></rect></clipPath></defs></svg> 