<?xml version="1.0" encoding="UTF-8"?> <svg xmlns="http://www.w3.org/2000/svg" width="9750" height="6255" viewBox="0 0 9750 6255" fill="none"><path d="M7042.98 306.924C6439.78 113.976 5688.79 0 4875.28 0C4061.76 0 3310.64 114.01 2707.26 306.924C1102.57 820.108 0 1885.86 0 3117.51C0 4850.11 2182.58 6255 4875.28 6255C7567.32 6255 9750 4850.11 9750 3117.51C9750 1885.92 8647.39 820.522 7042.98 306.924ZM4875.28 4905.91C4473.43 4905.91 4145.3 4120.06 4126.05 3132.52C4367.69 3154.14 4618.34 3165.73 4875.28 3165.73C5132.23 3165.73 5382.48 3154.14 5624.39 3132.52C5604.98 4120.06 5276.96 4905.91 4875.28 4905.91ZM4176.68 2359.39C4286.23 1666.22 4557.55 1175.21 4875.28 1175.21C5193 1175.21 5463.96 1666.22 5573.39 2359.39C5350.17 2379.46 5116.36 2390.42 4875.28 2390.42C4634.21 2390.42 4400.34 2379.31 4176.68 2359.39ZM6000.35 2307.1C5837.42 1219.11 5395.21 439.176 4875.28 439.176C4355.34 439.176 3912.86 1219.11 3749.85 2307.1C2759.56 2153.3 2067.39 1803.3 2067.39 1395.57C2067.39 846.143 3324.57 400.725 4875.39 400.725C6426.19 400.725 7683 846.143 7683 1395.57C7683 1803.3 6990.69 2153.3 6000.35 2307.1ZM711.535 3002.58C711.535 2471.5 917.002 1973.65 1275.56 1545.45C1271.45 1575.16 1269.35 1605.12 1269.29 1635.11C1269.29 2303.24 2278.08 2871.19 3684.76 3080.07C3683.64 3130.52 3682.81 3181.07 3682.81 3232.18C3682.81 4474.5 4029.2 5526.77 4508.12 5889.56C2380.34 5760.19 711.535 4517.32 711.535 3002.58ZM5242.46 5889.69C5721.13 5526.9 6067.54 4474.7 6067.54 3232.33C6067.54 3181.22 6066.98 3130.66 6065.84 3080.2C7472.12 2871.39 8481.14 2303.44 8481.14 1635.25C8481.01 1605.25 8478.84 1575.29 8474.64 1545.58C8833.13 1973.8 9038.71 2471.57 9038.71 3002.71C9038.71 4517.47 7369.82 5760.34 5242.7 5889.76" fill="white"></path></svg> 